<svg xmlns="http://www.w3.org/2000/svg" width="185" height="185" id="qrcode1617967253308">
  <defs></defs>
  <g>
    <rect class="bg" fill="#FFFFFF" x="0" y="0" width="185" height="185"></rect>
    <rect class="fg" fill="#241F4F" x="60" y="20" width="5" height="5"></rect>
    <rect class="fg" fill="#241F4F" x="65" y="20" width="5" height="5"></rect>
    <rect class="fg" fill="#241F4F" x="80" y="20" width="5" height="5"></rect>
    <rect class="fg" fill="#241F4F" x="90" y="20" width="5" height="5"></rect>
    <rect class="fg" fill="#241F4F" x="100" y="20" width="5" height="5"></rect>
    <rect class="fg" fill="#241F4F" x="120" y="20" width="5" height="5"></rect>
    <rect class="fg" fill="#241F4F" x="60" y="25" width="5" height="5"></rect>
    <rect class="fg" fill="#241F4F" x="70" y="25" width="5" height="5"></rect>
    <rect class="fg" fill="#241F4F" x="80" y="25" width="5" height="5"></rect>
    <rect class="fg" fill="#241F4F" x="85" y="25" width="5" height="5"></rect>
    <rect class="fg" fill="#241F4F" x="95" y="25" width="5" height="5"></rect>
    <rect class="fg" fill="#241F4F" x="100" y="25" width="5" height="5"></rect>
    <rect class="fg" fill="#241F4F" x="105" y="25" width="5" height="5"></rect>
    <rect class="fg" fill="#241F4F" x="120" y="25" width="5" height="5"></rect>
    <rect class="fg" fill="#241F4F" x="95" y="30" width="5" height="5"></rect>
    <rect class="fg" fill="#241F4F" x="105" y="30" width="5" height="5"></rect>
    <rect class="fg" fill="#241F4F" x="60" y="35" width="5" height="5"></rect>
    <rect class="fg" fill="#241F4F" x="65" y="35" width="5" height="5"></rect>
    <rect class="fg" fill="#241F4F" x="75" y="35" width="5" height="5"></rect>
    <rect class="fg" fill="#241F4F" x="90" y="35" width="5" height="5"></rect>
    <rect class="fg" fill="#241F4F" x="95" y="35" width="5" height="5"></rect>
    <rect class="fg" fill="#241F4F" x="110" y="35" width="5" height="5"></rect>
    <rect class="fg" fill="#241F4F" x="115" y="35" width="5" height="5"></rect>
    <rect class="fg" fill="#241F4F" x="60" y="40" width="5" height="5"></rect>
    <rect class="fg" fill="#241F4F" x="70" y="40" width="5" height="5"></rect>
    <rect class="fg" fill="#241F4F" x="75" y="40" width="5" height="5"></rect>
    <rect class="fg" fill="#241F4F" x="100" y="40" width="5" height="5"></rect>
    <rect class="fg" fill="#241F4F" x="105" y="40" width="5" height="5"></rect>
    <rect class="fg" fill="#241F4F" x="60" y="45" width="5" height="5"></rect>
    <rect class="fg" fill="#241F4F" x="80" y="45" width="5" height="5"></rect>
    <rect class="fg" fill="#241F4F" x="85" y="45" width="5" height="5"></rect>
    <rect class="fg" fill="#241F4F" x="90" y="45" width="5" height="5"></rect>
    <rect class="fg" fill="#241F4F" x="95" y="45" width="5" height="5"></rect>
    <rect class="fg" fill="#241F4F" x="105" y="45" width="5" height="5"></rect>
    <rect class="fg" fill="#241F4F" x="110" y="45" width="5" height="5"></rect>
    <rect class="fg" fill="#241F4F" x="115" y="45" width="5" height="5"></rect>
    <rect class="fg" fill="#241F4F" x="120" y="45" width="5" height="5"></rect>
    <rect class="fg" fill="#241F4F" x="60" y="50" width="5" height="5"></rect>
    <rect class="fg" fill="#241F4F" x="70" y="50" width="5" height="5"></rect>
    <rect class="fg" fill="#241F4F" x="80" y="50" width="5" height="5"></rect>
    <rect class="fg" fill="#241F4F" x="90" y="50" width="5" height="5"></rect>
    <rect class="fg" fill="#241F4F" x="100" y="50" width="5" height="5"></rect>
    <rect class="fg" fill="#241F4F" x="110" y="50" width="5" height="5"></rect>
    <rect class="fg" fill="#241F4F" x="120" y="50" width="5" height="5"></rect>
    <rect class="fg" fill="#241F4F" x="70" y="55" width="5" height="5"></rect>
    <rect class="fg" fill="#241F4F" x="75" y="55" width="5" height="5"></rect>
    <rect class="fg" fill="#241F4F" x="85" y="55" width="5" height="5"></rect>
    <rect class="fg" fill="#241F4F" x="95" y="55" width="5" height="5"></rect>
    <rect class="fg" fill="#241F4F" x="120" y="55" width="5" height="5"></rect>
    <rect class="fg" fill="#241F4F" x="35" y="60" width="5" height="5"></rect>
    <rect class="fg" fill="#241F4F" x="50" y="60" width="5" height="5"></rect>
    <rect class="fg" fill="#241F4F" x="65" y="60" width="5" height="5"></rect>
    <rect class="fg" fill="#241F4F" x="75" y="60" width="5" height="5"></rect>
    <rect class="fg" fill="#241F4F" x="100" y="60" width="5" height="5"></rect>
    <rect class="fg" fill="#241F4F" x="105" y="60" width="5" height="5"></rect>
    <rect class="fg" fill="#241F4F" x="135" y="60" width="5" height="5"></rect>
    <rect class="fg" fill="#241F4F" x="140" y="60" width="5" height="5"></rect>
    <rect class="fg" fill="#241F4F" x="145" y="60" width="5" height="5"></rect>
    <rect class="fg" fill="#241F4F" x="155" y="60" width="5" height="5"></rect>
    <rect class="fg" fill="#241F4F" x="160" y="60" width="5" height="5"></rect>
    <rect class="fg" fill="#241F4F" x="30" y="65" width="5" height="5"></rect>
    <rect class="fg" fill="#241F4F" x="35" y="65" width="5" height="5"></rect>
    <rect class="fg" fill="#241F4F" x="40" y="65" width="5" height="5"></rect>
    <rect class="fg" fill="#241F4F" x="60" y="65" width="5" height="5"></rect>
    <rect class="fg" fill="#241F4F" x="80" y="65" width="5" height="5"></rect>
    <rect class="fg" fill="#241F4F" x="85" y="65" width="5" height="5"></rect>
    <rect class="fg" fill="#241F4F" x="90" y="65" width="5" height="5"></rect>
    <rect class="fg" fill="#241F4F" x="95" y="65" width="5" height="5"></rect>
    <rect class="fg" fill="#241F4F" x="105" y="65" width="5" height="5"></rect>
    <rect class="fg" fill="#241F4F" x="115" y="65" width="5" height="5"></rect>
    <rect class="fg" fill="#241F4F" x="120" y="65" width="5" height="5"></rect>
    <rect class="fg" fill="#241F4F" x="125" y="65" width="5" height="5"></rect>
    <rect class="fg" fill="#241F4F" x="140" y="65" width="5" height="5"></rect>
    <rect class="fg" fill="#241F4F" x="145" y="65" width="5" height="5"></rect>
    <rect class="fg" fill="#241F4F" x="160" y="65" width="5" height="5"></rect>
    <rect class="fg" fill="#241F4F" x="20" y="70" width="5" height="5"></rect>
    <rect class="fg" fill="#241F4F" x="30" y="70" width="5" height="5"></rect>
    <rect class="fg" fill="#241F4F" x="35" y="70" width="5" height="5"></rect>
    <rect class="fg" fill="#241F4F" x="40" y="70" width="5" height="5"></rect>
    <rect class="fg" fill="#241F4F" x="50" y="70" width="5" height="5"></rect>
    <rect class="fg" fill="#241F4F" x="55" y="70" width="5" height="5"></rect>
    <rect class="fg" fill="#241F4F" x="60" y="70" width="5" height="5"></rect>
    <rect class="fg" fill="#241F4F" x="65" y="70" width="5" height="5"></rect>
    <rect class="fg" fill="#241F4F" x="90" y="70" width="5" height="5"></rect>
    <rect class="fg" fill="#241F4F" x="95" y="70" width="5" height="5"></rect>
    <rect class="fg" fill="#241F4F" x="100" y="70" width="5" height="5"></rect>
    <rect class="fg" fill="#241F4F" x="105" y="70" width="5" height="5"></rect>
    <rect class="fg" fill="#241F4F" x="110" y="70" width="5" height="5"></rect>
    <rect class="fg" fill="#241F4F" x="120" y="70" width="5" height="5"></rect>
    <rect class="fg" fill="#241F4F" x="125" y="70" width="5" height="5"></rect>
    <rect class="fg" fill="#241F4F" x="150" y="70" width="5" height="5"></rect>
    <rect class="fg" fill="#241F4F" x="25" y="75" width="5" height="5"></rect>
    <rect class="fg" fill="#241F4F" x="30" y="75" width="5" height="5"></rect>
    <rect class="fg" fill="#241F4F" x="40" y="75" width="5" height="5"></rect>
    <rect class="fg" fill="#241F4F" x="55" y="75" width="5" height="5"></rect>
    <rect class="fg" fill="#241F4F" x="60" y="75" width="5" height="5"></rect>
    <rect class="fg" fill="#241F4F" x="95" y="75" width="5" height="5"></rect>
    <rect class="fg" fill="#241F4F" x="100" y="75" width="5" height="5"></rect>
    <rect class="fg" fill="#241F4F" x="110" y="75" width="5" height="5"></rect>
    <rect class="fg" fill="#241F4F" x="125" y="75" width="5" height="5"></rect>
    <rect class="fg" fill="#241F4F" x="135" y="75" width="5" height="5"></rect>
    <rect class="fg" fill="#241F4F" x="140" y="75" width="5" height="5"></rect>
    <rect class="fg" fill="#241F4F" x="150" y="75" width="5" height="5"></rect>
    <rect class="fg" fill="#241F4F" x="155" y="75" width="5" height="5"></rect>
    <rect class="fg" fill="#241F4F" x="160" y="75" width="5" height="5"></rect>
    <rect class="fg" fill="#241F4F" x="20" y="80" width="5" height="5"></rect>
    <rect class="fg" fill="#241F4F" x="30" y="80" width="5" height="5"></rect>
    <rect class="fg" fill="#241F4F" x="35" y="80" width="5" height="5"></rect>
    <rect class="fg" fill="#241F4F" x="50" y="80" width="5" height="5"></rect>
    <rect class="fg" fill="#241F4F" x="75" y="80" width="5" height="5"></rect>
    <rect class="fg" fill="#241F4F" x="90" y="80" width="5" height="5"></rect>
    <rect class="fg" fill="#241F4F" x="100" y="80" width="5" height="5"></rect>
    <rect class="fg" fill="#241F4F" x="110" y="80" width="5" height="5"></rect>
    <rect class="fg" fill="#241F4F" x="115" y="80" width="5" height="5"></rect>
    <rect class="fg" fill="#241F4F" x="120" y="80" width="5" height="5"></rect>
    <rect class="fg" fill="#241F4F" x="130" y="80" width="5" height="5"></rect>
    <rect class="fg" fill="#241F4F" x="135" y="80" width="5" height="5"></rect>
    <rect class="fg" fill="#241F4F" x="145" y="80" width="5" height="5"></rect>
    <rect class="fg" fill="#241F4F" x="160" y="80" width="5" height="5"></rect>
    <rect class="fg" fill="#241F4F" x="20" y="85" width="5" height="5"></rect>
    <rect class="fg" fill="#241F4F" x="25" y="85" width="5" height="5"></rect>
    <rect class="fg" fill="#241F4F" x="35" y="85" width="5" height="5"></rect>
    <rect class="fg" fill="#241F4F" x="40" y="85" width="5" height="5"></rect>
    <rect class="fg" fill="#241F4F" x="45" y="85" width="5" height="5"></rect>
    <rect class="fg" fill="#241F4F" x="55" y="85" width="5" height="5"></rect>
    <rect class="fg" fill="#241F4F" x="60" y="85" width="5" height="5"></rect>
    <rect class="fg" fill="#241F4F" x="65" y="85" width="5" height="5"></rect>
    <rect class="fg" fill="#241F4F" x="70" y="85" width="5" height="5"></rect>
    <rect class="fg" fill="#241F4F" x="75" y="85" width="5" height="5"></rect>
    <rect class="fg" fill="#241F4F" x="80" y="85" width="5" height="5"></rect>
    <rect class="fg" fill="#241F4F" x="100" y="85" width="5" height="5"></rect>
    <rect class="fg" fill="#241F4F" x="110" y="85" width="5" height="5"></rect>
    <rect class="fg" fill="#241F4F" x="115" y="85" width="5" height="5"></rect>
    <rect class="fg" fill="#241F4F" x="120" y="85" width="5" height="5"></rect>
    <rect class="fg" fill="#241F4F" x="125" y="85" width="5" height="5"></rect>
    <rect class="fg" fill="#241F4F" x="135" y="85" width="5" height="5"></rect>
    <rect class="fg" fill="#241F4F" x="155" y="85" width="5" height="5"></rect>
    <rect class="fg" fill="#241F4F" x="20" y="90" width="5" height="5"></rect>
    <rect class="fg" fill="#241F4F" x="45" y="90" width="5" height="5"></rect>
    <rect class="fg" fill="#241F4F" x="50" y="90" width="5" height="5"></rect>
    <rect class="fg" fill="#241F4F" x="60" y="90" width="5" height="5"></rect>
    <rect class="fg" fill="#241F4F" x="70" y="90" width="5" height="5"></rect>
    <rect class="fg" fill="#241F4F" x="75" y="90" width="5" height="5"></rect>
    <rect class="fg" fill="#241F4F" x="85" y="90" width="5" height="5"></rect>
    <rect class="fg" fill="#241F4F" x="90" y="90" width="5" height="5"></rect>
    <rect class="fg" fill="#241F4F" x="95" y="90" width="5" height="5"></rect>
    <rect class="fg" fill="#241F4F" x="105" y="90" width="5" height="5"></rect>
    <rect class="fg" fill="#241F4F" x="120" y="90" width="5" height="5"></rect>
    <rect class="fg" fill="#241F4F" x="130" y="90" width="5" height="5"></rect>
    <rect class="fg" fill="#241F4F" x="135" y="90" width="5" height="5"></rect>
    <rect class="fg" fill="#241F4F" x="145" y="90" width="5" height="5"></rect>
    <rect class="fg" fill="#241F4F" x="150" y="90" width="5" height="5"></rect>
    <rect class="fg" fill="#241F4F" x="155" y="90" width="5" height="5"></rect>
    <rect class="fg" fill="#241F4F" x="160" y="90" width="5" height="5"></rect>
    <rect class="fg" fill="#241F4F" x="20" y="95" width="5" height="5"></rect>
    <rect class="fg" fill="#241F4F" x="30" y="95" width="5" height="5"></rect>
    <rect class="fg" fill="#241F4F" x="80" y="95" width="5" height="5"></rect>
    <rect class="fg" fill="#241F4F" x="85" y="95" width="5" height="5"></rect>
    <rect class="fg" fill="#241F4F" x="95" y="95" width="5" height="5"></rect>
    <rect class="fg" fill="#241F4F" x="100" y="95" width="5" height="5"></rect>
    <rect class="fg" fill="#241F4F" x="135" y="95" width="5" height="5"></rect>
    <rect class="fg" fill="#241F4F" x="145" y="95" width="5" height="5"></rect>
    <rect class="fg" fill="#241F4F" x="155" y="95" width="5" height="5"></rect>
    <rect class="fg" fill="#241F4F" x="25" y="100" width="5" height="5"></rect>
    <rect class="fg" fill="#241F4F" x="35" y="100" width="5" height="5"></rect>
    <rect class="fg" fill="#241F4F" x="45" y="100" width="5" height="5"></rect>
    <rect class="fg" fill="#241F4F" x="50" y="100" width="5" height="5"></rect>
    <rect class="fg" fill="#241F4F" x="55" y="100" width="5" height="5"></rect>
    <rect class="fg" fill="#241F4F" x="75" y="100" width="5" height="5"></rect>
    <rect class="fg" fill="#241F4F" x="80" y="100" width="5" height="5"></rect>
    <rect class="fg" fill="#241F4F" x="85" y="100" width="5" height="5"></rect>
    <rect class="fg" fill="#241F4F" x="90" y="100" width="5" height="5"></rect>
    <rect class="fg" fill="#241F4F" x="100" y="100" width="5" height="5"></rect>
    <rect class="fg" fill="#241F4F" x="110" y="100" width="5" height="5"></rect>
    <rect class="fg" fill="#241F4F" x="115" y="100" width="5" height="5"></rect>
    <rect class="fg" fill="#241F4F" x="135" y="100" width="5" height="5"></rect>
    <rect class="fg" fill="#241F4F" x="140" y="100" width="5" height="5"></rect>
    <rect class="fg" fill="#241F4F" x="155" y="100" width="5" height="5"></rect>
    <rect class="fg" fill="#241F4F" x="25" y="105" width="5" height="5"></rect>
    <rect class="fg" fill="#241F4F" x="45" y="105" width="5" height="5"></rect>
    <rect class="fg" fill="#241F4F" x="55" y="105" width="5" height="5"></rect>
    <rect class="fg" fill="#241F4F" x="70" y="105" width="5" height="5"></rect>
    <rect class="fg" fill="#241F4F" x="85" y="105" width="5" height="5"></rect>
    <rect class="fg" fill="#241F4F" x="90" y="105" width="5" height="5"></rect>
    <rect class="fg" fill="#241F4F" x="95" y="105" width="5" height="5"></rect>
    <rect class="fg" fill="#241F4F" x="115" y="105" width="5" height="5"></rect>
    <rect class="fg" fill="#241F4F" x="120" y="105" width="5" height="5"></rect>
    <rect class="fg" fill="#241F4F" x="145" y="105" width="5" height="5"></rect>
    <rect class="fg" fill="#241F4F" x="150" y="105" width="5" height="5"></rect>
    <rect class="fg" fill="#241F4F" x="160" y="105" width="5" height="5"></rect>
    <rect class="fg" fill="#241F4F" x="20" y="110" width="5" height="5"></rect>
    <rect class="fg" fill="#241F4F" x="50" y="110" width="5" height="5"></rect>
    <rect class="fg" fill="#241F4F" x="55" y="110" width="5" height="5"></rect>
    <rect class="fg" fill="#241F4F" x="60" y="110" width="5" height="5"></rect>
    <rect class="fg" fill="#241F4F" x="65" y="110" width="5" height="5"></rect>
    <rect class="fg" fill="#241F4F" x="70" y="110" width="5" height="5"></rect>
    <rect class="fg" fill="#241F4F" x="75" y="110" width="5" height="5"></rect>
    <rect class="fg" fill="#241F4F" x="85" y="110" width="5" height="5"></rect>
    <rect class="fg" fill="#241F4F" x="95" y="110" width="5" height="5"></rect>
    <rect class="fg" fill="#241F4F" x="100" y="110" width="5" height="5"></rect>
    <rect class="fg" fill="#241F4F" x="105" y="110" width="5" height="5"></rect>
    <rect class="fg" fill="#241F4F" x="110" y="110" width="5" height="5"></rect>
    <rect class="fg" fill="#241F4F" x="125" y="110" width="5" height="5"></rect>
    <rect class="fg" fill="#241F4F" x="135" y="110" width="5" height="5"></rect>
    <rect class="fg" fill="#241F4F" x="140" y="110" width="5" height="5"></rect>
    <rect class="fg" fill="#241F4F" x="145" y="110" width="5" height="5"></rect>
    <rect class="fg" fill="#241F4F" x="160" y="110" width="5" height="5"></rect>
    <rect class="fg" fill="#241F4F" x="30" y="115" width="5" height="5"></rect>
    <rect class="fg" fill="#241F4F" x="45" y="115" width="5" height="5"></rect>
    <rect class="fg" fill="#241F4F" x="55" y="115" width="5" height="5"></rect>
    <rect class="fg" fill="#241F4F" x="65" y="115" width="5" height="5"></rect>
    <rect class="fg" fill="#241F4F" x="75" y="115" width="5" height="5"></rect>
    <rect class="fg" fill="#241F4F" x="130" y="115" width="5" height="5"></rect>
    <rect class="fg" fill="#241F4F" x="135" y="115" width="5" height="5"></rect>
    <rect class="fg" fill="#241F4F" x="20" y="120" width="5" height="5"></rect>
    <rect class="fg" fill="#241F4F" x="35" y="120" width="5" height="5"></rect>
    <rect class="fg" fill="#241F4F" x="40" y="120" width="5" height="5"></rect>
    <rect class="fg" fill="#241F4F" x="50" y="120" width="5" height="5"></rect>
    <rect class="fg" fill="#241F4F" x="80" y="120" width="5" height="5"></rect>
    <rect class="fg" fill="#241F4F" x="85" y="120" width="5" height="5"></rect>
    <rect class="fg" fill="#241F4F" x="90" y="120" width="5" height="5"></rect>
    <rect class="fg" fill="#241F4F" x="100" y="120" width="5" height="5"></rect>
    <rect class="fg" fill="#241F4F" x="105" y="120" width="5" height="5"></rect>
    <rect class="fg" fill="#241F4F" x="110" y="120" width="5" height="5"></rect>
    <rect class="fg" fill="#241F4F" x="120" y="120" width="5" height="5"></rect>
    <rect class="fg" fill="#241F4F" x="125" y="120" width="5" height="5"></rect>
    <rect class="fg" fill="#241F4F" x="130" y="120" width="5" height="5"></rect>
    <rect class="fg" fill="#241F4F" x="135" y="120" width="5" height="5"></rect>
    <rect class="fg" fill="#241F4F" x="140" y="120" width="5" height="5"></rect>
    <rect class="fg" fill="#241F4F" x="155" y="120" width="5" height="5"></rect>
    <rect class="fg" fill="#241F4F" x="60" y="125" width="5" height="5"></rect>
    <rect class="fg" fill="#241F4F" x="65" y="125" width="5" height="5"></rect>
    <rect class="fg" fill="#241F4F" x="75" y="125" width="5" height="5"></rect>
    <rect class="fg" fill="#241F4F" x="90" y="125" width="5" height="5"></rect>
    <rect class="fg" fill="#241F4F" x="95" y="125" width="5" height="5"></rect>
    <rect class="fg" fill="#241F4F" x="105" y="125" width="5" height="5"></rect>
    <rect class="fg" fill="#241F4F" x="110" y="125" width="5" height="5"></rect>
    <rect class="fg" fill="#241F4F" x="120" y="125" width="5" height="5"></rect>
    <rect class="fg" fill="#241F4F" x="140" y="125" width="5" height="5"></rect>
    <rect class="fg" fill="#241F4F" x="155" y="125" width="5" height="5"></rect>
    <rect class="fg" fill="#241F4F" x="160" y="125" width="5" height="5"></rect>
    <rect class="fg" fill="#241F4F" x="80" y="130" width="5" height="5"></rect>
    <rect class="fg" fill="#241F4F" x="85" y="130" width="5" height="5"></rect>
    <rect class="fg" fill="#241F4F" x="100" y="130" width="5" height="5"></rect>
    <rect class="fg" fill="#241F4F" x="105" y="130" width="5" height="5"></rect>
    <rect class="fg" fill="#241F4F" x="120" y="130" width="5" height="5"></rect>
    <rect class="fg" fill="#241F4F" x="130" y="130" width="5" height="5"></rect>
    <rect class="fg" fill="#241F4F" x="140" y="130" width="5" height="5"></rect>
    <rect class="fg" fill="#241F4F" x="145" y="130" width="5" height="5"></rect>
    <rect class="fg" fill="#241F4F" x="150" y="130" width="5" height="5"></rect>
    <rect class="fg" fill="#241F4F" x="155" y="130" width="5" height="5"></rect>
    <rect class="fg" fill="#241F4F" x="70" y="135" width="5" height="5"></rect>
    <rect class="fg" fill="#241F4F" x="75" y="135" width="5" height="5"></rect>
    <rect class="fg" fill="#241F4F" x="85" y="135" width="5" height="5"></rect>
    <rect class="fg" fill="#241F4F" x="90" y="135" width="5" height="5"></rect>
    <rect class="fg" fill="#241F4F" x="100" y="135" width="5" height="5"></rect>
    <rect class="fg" fill="#241F4F" x="120" y="135" width="5" height="5"></rect>
    <rect class="fg" fill="#241F4F" x="140" y="135" width="5" height="5"></rect>
    <rect class="fg" fill="#241F4F" x="145" y="135" width="5" height="5"></rect>
    <rect class="fg" fill="#241F4F" x="150" y="135" width="5" height="5"></rect>
    <rect class="fg" fill="#241F4F" x="160" y="135" width="5" height="5"></rect>
    <rect class="fg" fill="#241F4F" x="70" y="140" width="5" height="5"></rect>
    <rect class="fg" fill="#241F4F" x="80" y="140" width="5" height="5"></rect>
    <rect class="fg" fill="#241F4F" x="90" y="140" width="5" height="5"></rect>
    <rect class="fg" fill="#241F4F" x="105" y="140" width="5" height="5"></rect>
    <rect class="fg" fill="#241F4F" x="110" y="140" width="5" height="5"></rect>
    <rect class="fg" fill="#241F4F" x="120" y="140" width="5" height="5"></rect>
    <rect class="fg" fill="#241F4F" x="125" y="140" width="5" height="5"></rect>
    <rect class="fg" fill="#241F4F" x="130" y="140" width="5" height="5"></rect>
    <rect class="fg" fill="#241F4F" x="135" y="140" width="5" height="5"></rect>
    <rect class="fg" fill="#241F4F" x="140" y="140" width="5" height="5"></rect>
    <rect class="fg" fill="#241F4F" x="145" y="140" width="5" height="5"></rect>
    <rect class="fg" fill="#241F4F" x="160" y="140" width="5" height="5"></rect>
    <rect class="fg" fill="#241F4F" x="60" y="145" width="5" height="5"></rect>
    <rect class="fg" fill="#241F4F" x="65" y="145" width="5" height="5"></rect>
    <rect class="fg" fill="#241F4F" x="70" y="145" width="5" height="5"></rect>
    <rect class="fg" fill="#241F4F" x="75" y="145" width="5" height="5"></rect>
    <rect class="fg" fill="#241F4F" x="80" y="145" width="5" height="5"></rect>
    <rect class="fg" fill="#241F4F" x="90" y="145" width="5" height="5"></rect>
    <rect class="fg" fill="#241F4F" x="95" y="145" width="5" height="5"></rect>
    <rect class="fg" fill="#241F4F" x="105" y="145" width="5" height="5"></rect>
    <rect class="fg" fill="#241F4F" x="110" y="145" width="5" height="5"></rect>
    <rect class="fg" fill="#241F4F" x="115" y="145" width="5" height="5"></rect>
    <rect class="fg" fill="#241F4F" x="130" y="145" width="5" height="5"></rect>
    <rect class="fg" fill="#241F4F" x="140" y="145" width="5" height="5"></rect>
    <rect class="fg" fill="#241F4F" x="145" y="145" width="5" height="5"></rect>
    <rect class="fg" fill="#241F4F" x="150" y="145" width="5" height="5"></rect>
    <rect class="fg" fill="#241F4F" x="155" y="145" width="5" height="5"></rect>
    <rect class="fg" fill="#241F4F" x="160" y="145" width="5" height="5"></rect>
    <rect class="fg" fill="#241F4F" x="65" y="150" width="5" height="5"></rect>
    <rect class="fg" fill="#241F4F" x="70" y="150" width="5" height="5"></rect>
    <rect class="fg" fill="#241F4F" x="80" y="150" width="5" height="5"></rect>
    <rect class="fg" fill="#241F4F" x="85" y="150" width="5" height="5"></rect>
    <rect class="fg" fill="#241F4F" x="90" y="150" width="5" height="5"></rect>
    <rect class="fg" fill="#241F4F" x="110" y="150" width="5" height="5"></rect>
    <rect class="fg" fill="#241F4F" x="135" y="150" width="5" height="5"></rect>
    <rect class="fg" fill="#241F4F" x="140" y="150" width="5" height="5"></rect>
    <rect class="fg" fill="#241F4F" x="150" y="150" width="5" height="5"></rect>
    <rect class="fg" fill="#241F4F" x="160" y="150" width="5" height="5"></rect>
    <rect class="fg" fill="#241F4F" x="65" y="155" width="5" height="5"></rect>
    <rect class="fg" fill="#241F4F" x="75" y="155" width="5" height="5"></rect>
    <rect class="fg" fill="#241F4F" x="80" y="155" width="5" height="5"></rect>
    <rect class="fg" fill="#241F4F" x="90" y="155" width="5" height="5"></rect>
    <rect class="fg" fill="#241F4F" x="95" y="155" width="5" height="5"></rect>
    <rect class="fg" fill="#241F4F" x="100" y="155" width="5" height="5"></rect>
    <rect class="fg" fill="#241F4F" x="110" y="155" width="5" height="5"></rect>
    <rect class="fg" fill="#241F4F" x="115" y="155" width="5" height="5"></rect>
    <rect class="fg" fill="#241F4F" x="130" y="155" width="5" height="5"></rect>
    <rect class="fg" fill="#241F4F" x="140" y="155" width="5" height="5"></rect>
    <rect class="fg" fill="#241F4F" x="150" y="155" width="5" height="5"></rect>
    <rect class="fg" fill="#241F4F" x="155" y="155" width="5" height="5"></rect>
    <rect class="fg" fill="#241F4F" x="70" y="160" width="5" height="5"></rect>
    <rect class="fg" fill="#241F4F" x="90" y="160" width="5" height="5"></rect>
    <rect class="fg" fill="#241F4F" x="95" y="160" width="5" height="5"></rect>
    <rect class="fg" fill="#241F4F" x="100" y="160" width="5" height="5"></rect>
    <rect class="fg" fill="#241F4F" x="105" y="160" width="5" height="5"></rect>
    <rect class="fg" fill="#241F4F" x="130" y="160" width="5" height="5"></rect>
    <rect class="fg" fill="#241F4F" x="140" y="160" width="5" height="5"></rect>
    <rect class="fg" fill="#241F4F" x="145" y="160" width="5" height="5"></rect>
    <rect class="fg" fill="#241F4F" x="150" y="160" width="5" height="5"></rect>
    <rect class="fg" fill="#241F4F" x="155" y="160" width="5" height="5"></rect>
    <rect class="eyeTLBorder" fill="none" stroke="#241F4F" stroke-width="5" x="22.5" y="22.5" rx="10" ry="10" width="30" height="30"></rect>
    <rect class="eyeTL" fill="#241F4F" x="30" y="30" rx="5" ry="5" width="15" height="15"></rect>
    <rect class="eyeTRBorder" fill="none" stroke="#241F4F" stroke-width="5" x="132.5" y="22.5" rx="10" ry="10" width="30" height="30"></rect>
    <rect class="eyeTR" fill="#241F4F" x="140" y="30" rx="5" ry="5" width="15" height="15"></rect>
    <rect class="eyeBLBorder" fill="none" stroke="#241F4F" stroke-width="5" x="22.5" y="132.5" rx="10" ry="10" width="30" height="30"></rect>
    <rect class="eyeBL" fill="#241F4F" x="30" y="140" rx="5" ry="5" width="15" height="15"></rect>
    <svg width="36.98668585822238" height="37" viewBox="0 0 2778 2779" version="1.1" xmlns="http://www.w3.org/2000/svg" xmlns:xlink="http://www.w3.org/1999/xlink" xml:space="preserve" xmlns:serif="http://www.serif.com/" style="fill-rule:evenodd;clip-rule:evenodd;stroke-linejoin:round;stroke-miterlimit:1.41421;" x="74.0066570708888" y="74">
      <rect id="Artboard1" x="0" y="0" width="2777.95" height="2778.76" style="fill:none;"/>
      <clipPath id="_clip1">
        <rect x="0" y="0" width="2777.95" height="2778.76"/>
      </clipPath>
      <g clip-path="url(#_clip1)">
        <g id="content">
          <clipPath id="_clip2">
            <rect x="1.132" y="-0.624" width="2779.31" height="2782.93"/>
          </clipPath>
          <g clip-path="url(#_clip2)">
            <rect x="-826.27" y="-405.113" width="4425.46" height="3563.36" style="fill:#fff;"/>
          </g>
          <path d="M2388.05,1184.26c2.671,-2.531 5.015,-5.341 6.987,-8.374c0.577,-0.95 0.961,-1.959 1.474,-2.91c1.258,-2.208 2.309,-4.513 3.141,-6.889c0.384,-1.247 0.641,-2.494 0.897,-3.801c0.534,-2.268 0.877,-4.571 1.025,-6.889c0,-0.653 0,-1.306 0,-1.96l0,-559.269c-0.038,-2.231 -0.273,-4.456 -0.705,-6.652c0,-0.356 0,-0.653 0,-1.009c-0.811,-3.87 -2.169,-7.624 -4.038,-11.166l-1.025,-1.959c-2.044,-3.456 -4.565,-6.65 -7.499,-9.503c-2.935,-2.852 0,-0.356 -0.449,-0.534l-482.634,-447.202c0,0 -0.577,0 -0.833,-0.534c-3.09,-2.842 -6.583,-5.279 -10.383,-7.246l-1.41,-0.534c-4.054,-1.845 -8.37,-3.145 -12.819,-3.861l-0.834,0c-2.204,-0.339 -4.431,-0.537 -6.665,-0.594l-1447.84,0l-1.282,0l-2.372,0c-2.932,0.311 -5.828,0.868 -8.652,1.663l-2.115,0.535c-3.34,1.004 -6.544,2.359 -9.551,4.038c-0.267,0.074 -0.525,0.173 -0.769,0.297l-1.089,0.832c-2.653,1.605 -5.122,3.456 -7.371,5.523c-0.385,0.356 -0.769,0.653 -1.09,1.009c-2.463,2.326 -4.615,4.918 -6.409,7.721c-0.366,0.687 -0.666,1.403 -0.898,2.138c-1.424,2.434 -2.563,5.003 -3.397,7.661c-0.221,0.506 -0.413,1.021 -0.577,1.544l0,0.654c-0.835,2.952 -1.329,5.978 -1.474,9.027l0,673c0.091,3.003 0.521,5.988 1.282,8.908l0,0.594c0.164,0.524 0.356,1.039 0.577,1.544c0.814,2.704 1.953,5.313 3.397,7.78c0.324,0.683 0.71,1.338 1.154,1.96c1.809,2.811 3.96,5.422 6.409,7.78c0.332,0.347 0.696,0.665 1.09,0.95c2.265,2.069 4.732,3.938 7.371,5.583l1.089,0.831l0.705,0c3.265,1.79 6.751,3.206 10.384,4.217l2.179,0.535c3.74,0.946 7.596,1.445 11.473,1.484l314.834,0l0,1030.94l-314.898,0l-1.346,0l-2.115,0c-3.057,0.224 -6.084,0.722 -9.038,1.485l-1.858,0.415c-3.36,1.004 -6.586,2.359 -9.615,4.039c-3.029,1.68 -0.512,0 -0.769,0.356l-1.089,0.772c-2.639,1.645 -5.106,3.514 -7.371,5.583c-0.385,0.356 -0.769,0.594 -1.09,0.95c-2.442,2.365 -4.592,4.974 -6.409,7.78c-0.385,0.653 -0.769,1.307 -1.09,1.96c-1.422,2.497 -2.56,5.124 -3.397,7.839c-0.221,0.506 -0.413,1.021 -0.577,1.544l0,0.594c-0.793,3.056 -1.222,6.182 -1.282,9.325l0,672.643c0.036,3.058 0.423,6.104 1.154,9.087l0,0.653c0.164,0.504 0.356,1 0.577,1.485c0.825,2.718 1.964,5.347 3.397,7.839c0.324,0.691 0.688,1.365 1.089,2.019c1.819,2.788 3.968,5.378 6.41,7.721c0.331,0.347 0.696,0.665 1.09,0.95c2.231,2.103 4.702,3.975 7.37,5.583l1.09,0.831c0,0 0.449,0 0.705,0c3.281,1.801 6.79,3.217 10.448,4.217l2.115,0.534c3.749,0.898 7.601,1.377 11.473,1.426l1447.97,0c2.904,0.013 5.804,-0.245 8.652,-0.772c0.769,0 1.474,-0.357 2.308,-0.535c2.002,-0.436 3.971,-0.992 5.896,-1.663c0.926,-0.315 1.826,-0.692 2.692,-1.128c1.746,-0.704 3.438,-1.518 5.064,-2.435l2.564,-1.604c1.622,-1.069 3.164,-2.24 4.615,-3.504c0.512,-0.415 1.025,-0.712 1.474,-1.128l482.634,-447.142c0,0 0,-0.416 0.448,-0.535c2.935,-2.852 5.456,-6.046 7.499,-9.502l1.026,-1.96c1.868,-3.541 3.226,-7.295 4.038,-11.165c0,-0.297 0,-0.653 0,-1.01c0.427,-2.196 0.663,-4.42 0.705,-6.651l0,-558.676c0,-0.713 0,-1.306 0,-1.96c-0.148,-2.337 -0.491,-4.66 -1.026,-6.948c0,-1.247 -0.512,-2.495 -0.897,-3.742c-0.832,-2.375 -1.882,-4.68 -3.141,-6.889c-0.512,-0.95 -0.897,-1.96 -1.474,-2.91c-1.939,-3.053 -4.286,-5.866 -6.986,-8.374l-207.924,-192.6l207.603,-192.659Zm-159.66,-645.621l-913.479,-84.868l548.075,-253.889l365.404,338.757Zm-555.445,-348.081l-524.552,243.08l-524.616,-243.08l1049.17,0Zm374.121,1186.18l-249.457,231.144l-602.491,557.962l0,-1578.21l851.948,789.106Zm-1575.58,-1159.22l571.662,264.876l-571.662,264.817l0,-529.693Zm630.181,370.114l0,1578.21l-268.173,-248.188l0,-1081.84l268.173,-248.188Zm-477.891,186.839l286.311,-132.913l-143.188,132.913l-143.123,0Zm143.123,1204.83l143.188,132.616l-286.311,-132.616l143.123,0Zm-295.413,26.962l571.662,264.817l-315.987,146.395l-255.675,118.422l0,-529.634Zm152.354,556.597l469.174,-217.365l55.378,-25.656l524.552,243.021l-1049.1,0Zm1239.14,-9.443l-18.46,-8.552l-529.615,-245.397l913.479,-84.629l-365.404,338.578Zm444.882,-433.542l-648.063,60.043l-307.078,28.388l955.013,-530.941l0.128,442.51Zm-28.843,-528.149l-827.079,459.614l661.65,-612.958l165.429,153.344Zm-165.429,-276.814l-70.798,-65.582l-590.852,-547.316l826.823,459.792l-165.173,153.106Zm194.272,-238.983l-955.013,-531l955.013,88.55l0,442.45Z" style="fill:#37285c;fill-rule:nonzero;"/>
        </g>
      </g>
    </svg>
  </g>
</svg>
